<svg xmlns="http://www.w3.org/2000/svg" viewBox="0 0 613.13 794.45"><defs><style>.cls-1{fill:#aaa;}.cls-2{fill:#231f20;}.cls-3{fill:none;}.cls-4{fill:#555;}.cls-5{fill:#020202;}.cls-6{fill:#fff;}</style></defs><title>Asset 1</title><g id="Layer_2" data-name="Layer 2"><g id="background_colour" data-name="background colour"><rect class="cls-1" x="0.78" width="612" height="792"/></g><g id="tree_detailing" data-name="tree detailing"><path class="cls-2" d="M.78,585c2.26-1.09,4-.44,4.64-2.82s-.21-5.43,0-7.81,2-2.6,2.82-1.3S13,569.36,13,569.36s1.3,6.94,1.09,9.33,3.25-.65,3.68-1.52a19.45,19.45,0,0,0,.87-2.17l3.47,2.17,1.3-6.07s2.61-1.74,3.26-3-.65-3.25,0-5.2,1.95,1.95,2.6,2.81a2.35,2.35,0,0,0,3,.44c.65-.65-.43-4.12,0-5s1.74,1.3,2.17,2.17,3.47,3.25,4.12,6.07,2.17,5.64,3.91,5.86a14.49,14.49,0,0,0,4.55-.65s1.3,19.3,3.47,20.16,3.69,2,4.34,0-.87-8.67,0-10.62,2.6-2.82,3.69-2.17,3.68-.43,3.25,3.47-1,10,0,12.58.38,5,2.77,5.2,5.2-.43,5.64-2.6-1.74-3.47,0-7.37,2.38-5.64,2-8,.43-4.12,2-7.8,1.52-3.69,2.39-.22,1.51,5.2,3.25,6.94a18.86,18.86,0,0,1,2.82,3.69l-9.54,27.32s-.22,96.94-.87,96.94-2,81.76-2,81.76H0l.43-140.1Z"/><path class="cls-2" d="M207.11,549.84v-5l2.17-.87,4.34-1.3,2.81-5,3.69-.87,5.42,3.9,1.09,2,3.25-4.34,3.9.87,1.74,3.47,2.38-1.52,3.26-1.74,2.17,1.3,4.33-.65,5.86,4.78s2.6,4.55,1.95,4.33-23.81-.86-23.81-.86l-23.59,3.34Z"/><path class="cls-2" d="M263.39,547.67l1.52,2.28,42.72,1.72s1.84-4.15,1.95-4.56,2.05-7.1,2.05-7.1-1.4-.29-1.73,0-1.84.64-2.38-.13a11.49,11.49,0,0,0-2.49-2.29c-.44-.22-1.41-.76-1.41-.76l-.33-1.63-1.41-.65-.22-2.16a15.46,15.46,0,0,0-2.27,0c-.33.1-1.41-2.72-1.74-2.72s-3.36,1.31-3.36,1.31l-2.82.65s-2.06.86-2.06,1.19a16.41,16.41,0,0,1-1.19,2.38s-1.63.11-1.52,1a14.71,14.71,0,0,1-.33,3l-2.49-.44s-1.3,1-1.73,1.2-2.61-1-2.93-1.09a25.74,25.74,0,0,0-2.5-1.19c-.32,0-1.3-.87-1.3-.87s-2.6,3.25-3,3.25a11.56,11.56,0,0,0-2,.59l-1.25,2.88-3.38,1.15s-2.36,1.78-2.36,2.11Z"/><path class="cls-2" d="M438,559.2c0,.15.07,1.92.07,1.92s7.51.72,7.52.49a5.71,5.71,0,0,1,.15-.85s1,0,.86-.11a5.5,5.5,0,0,1-.14-1.45h.72a28.92,28.92,0,0,1-2.35-2.42c-.07-.25.69-1.33.54-1.44s-1.3-.44-1.3-.62a12.72,12.72,0,0,0-.54-2.38c-.11,0-2.6.25-2.6.47s-.18,2.56-.25,2.67-.84.87-.69,1,1.19,1.37.94,1.59-1.12.9-1.27,1A15,15,0,0,1,438,559.2Z"/><path class="cls-2" d="M474.43,523.24a16.48,16.48,0,0,1,2.37,2.11c2,1.91,4.59,4.46,5.08,4.69.8.36,4.27,2.16,4.48,2.31s2.1.65,2.1.43V528h.72v12.55l.44.36s.72,20.46.94,20.32a13.29,13.29,0,0,1,1.8-.51v-2.1l1.38,2.61s.72,1.59.94,1.51,1.73-.5,1.66,0,.15,1.73,0,1.8-7.74-.29-7.74-.29L488.24,535s-4.84-2.53-5-2.75-3.47-2.89-3.47-2.89L477,527.22l-2.53-2.89Z"/><path class="cls-3" d="M505,565.31l2.1-.71s2.75.52,3.47,0,3,.23,3.25,0,1.66-1.31,1.66-1.31-.5-1.68,0-1.63a12.14,12.14,0,0,1,2.17.83l1.3,1.59,4.78.52v1.9Z"/><path class="cls-2" d="M540.16,572.13a15.35,15.35,0,0,1,1.21-2.33l1.45,1.66-.29,2,1.66.65a6,6,0,0,0,0,1.59c.15.08,1.52.36,1.52.36v-.5a18.4,18.4,0,0,0,1.59,1.52,18,18,0,0,0,2,0l7-.29.43-.73s2.53.15,2.46.37a9.77,9.77,0,0,0,0,1.44h7.52s.21,1.16.43,1.09,2.17-.58,2.17-.58v-5.57l2-.36a19,19,0,0,1,2.46,2.39c-.07.21.15,4.12,0,4.12s-.58.43-.58.43l1.3.94v3s4.27,4.05,4.41,4.27.72,3.83.94,3.76a32.08,32.08,0,0,1,3.33.86s.21-6.86.65-7.15,2.31,1,2.31,1l1.16,3.47,2.6-4.77s-1.3-10.7-1.3-11.42.29-7.23.58-7.67,2.45-6.65,2.45-6.65l.73,5.06,2.45,3.33,1.59,7.37,1.45,8.82,5.2,2.89,4-1.88a21.41,21.41,0,0,1,1.3,3c0,.43,4.47,2.17,4.47,2.17V792l-12.49.92L598.12,786s-38.82.22-38.38-1.08-5.93-161.79-5.93-161.79l-.31-10.07s-13.78-40-13.34-40.94"/></g><g id="base_content" data-name="base content"><path id="goose_and_statue" data-name="goose and statue" class="cls-4" d="M22.12,102c1.41-5.31,11.06-2.6,19.74-4.12s8.45.22,10.84-4.34-.65-4.12,2.6-11.49S74.39,65.9,90.22,71.76s26.46,20.71,39.25,31.34,24.94,20.17,34.92,31.44S187,170,192.58,179.43c5.38,9.15,5.71,16.12,23.06,38.68s29.49,43.37,41.35,52.34,21.11,16.19,29.2,23.13c9.55-3.18,9-2.89,19.81-6.65-9.4,8.38-4.77,4.34-14.6,13.88,13-3.76,11.28-6.08,24.87-8.39,20.17,5.27,17.83,14.7,22.26,10.41,5.17-5,3.37-5,5.5-4.63l1.72.34c-.76-.72,6.47-8.31,3.48-17.68-3.17-9.94-4.75-2.92-6.26-11.2-1.11-6.05,3.13-5.41.77-13.67-2.49-8.7-7.74-5.87-17.06-14.17-1.29-2.45-.87-7.09,10.55-2.89,7.59,2.79,9.76,7.15,26.17,19.37,15.93,11.86,115.19,103,123.58,116.75,8.25,13.5,68.22,107.72,85.77,131.85-4.7,1.92-27.81-31.36-35.89-42.94-13.28-8.11-14-19.19-19.2-19.3-5.57-.11-10.23-7.78-14.74-10.62-2.93-1.85,1.73,5.63-6.29,0-12.39-8.71-69.91-82.13-71.14-82.63-2.41-1-5.2-3.25-4.12-.65s1.74,1.52,3.26,5.64-2.39,1.52-3,1.52,4.12,7.37,5,8.89-2.82.54-3.9-.11S429,374,429,376.57s-3.9-.22-5.42-.65,5.85,7.35,5.64,10.41c-.33,4.94-5.82-.72-7.15,0-1.63.86,5.63,6.5,6.72,11.06s-.44,3.25-1.95,3.25,3.56,6.17,4.77,9.54c1.15,3.22,2.2,11.12-5.42,6.29-7.42-4.7-15.62-19-18.87-20.47s3.68,9.84,3.9,12.23-1,.54-4.44-3.8-2.54-4.53-3.58-1.19-5-1.24-3.47,4.56c1.25,4.7,14.74,30.36,16.26,36.43s5.64,12.36,5.21,16.91,1.11,13.5,6.72,18.87,27.65,36.22,26.89,45.54c-.65,8-2.91,7.83-5.64,5.86-3.14-2.28-1.73,5.64-5.42,8.46s-11.93-4.34-14.31-4.56,1.25,1.39-2.39,1.52c-4.2.16-14.2-12.54-17.78-18.87-3.36-5.92-.43-5.85-3.25-9.54s-11.71-9.32-15.18-10-7.89-2.12-8.9-3.26c-1.62-1.84-.87.78-1.3,6.51-.41,5.53-.17,36.47.44,40.34,1.19,7.59,3.58,4.58,4.77,14.53,9.11,0,21,1.51,25.15,3.25s77.86,4.34,84.58,5,23.64,1.3,42.94,2.6c7.34,20.36,13.45,41.86,15.62,47.28s5.85,160.56,6.07,168.94c7.05.86,29,1.08,38.49,2,1.3,7.15.45,5.27,1.3,6.42,1.76,2.36-338-.66-364.51,0-18.63.46-144.87-.43-165.26,0,1.9-46,2.24-132.2,5.17-176.88,11.18-44.67,6.36-27.28,11.18-47.71,27.83-3,131.41-17.35,141.82-18.22s75.47,2.61,77.64,2.61,2.71-1.09,4-6.4,4.34-12.36,4.56-15.29a100.74,100.74,0,0,0,.21-14.31c-.14-2.62,0-11-1-15.47S309,481.82,306,475.6c-5.64-4.05-26.46-16.05-31.08-19.37s-7.74-7-21-19.37c6.29,20.6,10,25.37,9.76,32.53s-.87,4.77-4.55,4.33c1.95,3.69,3.25,4.88,2.93,9.76s-4.88,3.36-6.62,3.58,1.41.33,2.6,4.34,1.63,10.3-.86,12.68c1.19,2.61,18.74,31.44,12,38.61-5.85,4.88-13.88,3.47-23.31-12.91s-12.36-22.44-17.68-30.58c-6.1.4-16.61-15.71-18.54-21.47-2.17-6.46-68.06-112-75-149.45-6.37-27.76,16.91-27,43.37-24,27.57,3.15,23.44,6.4,24-15.62.52-20.36-16.19-61.59-29.42-89.06-15.07-31.28-15.58-34.62-26.57-46.19s-15.18-18-25-21.9-15.94-1.63-25.37-2.93-18.87-3-26-7.48,1.84-3.69-13.45-5.53S32.86,113,28,112,21,106.23,22.12,102Z"/><g id="shrubbery"><path class="cls-4" d="M.78,725.55l3.31.82v-4.55l2.44,3.73,4.22.82,1.74,4.12,2-2.6.2-25.37h3.52v16.26c1.52-.21,3.61-6.94,3.61-6.94l2.66-1.3v-3.9l4.14-1.09V720.3h2l-.94-23.2,3.69,2.17s-.22,9.75,0,10.4a51.22,51.22,0,0,1,1.36,8.25c-.06,1.73,2.33,3.25,2.33,2.6v-18l4.35-.87.63,18.87,5.45,2.38-9.42.94v1.45l29.56,2.17-9-5.06-.29-9.54,3.47-.87,1.73,10.41h1.74l-.53-9.46,7.46-1.23V792l-39.68.92.87-3.22L.78,783.63Z"/><path class="cls-4" d="M67.66,664.13a29.63,29.63,0,0,0-2.6,2.6s-3.25-1.73-3.69,0a25.39,25.39,0,0,0,0,5.86l3.05-2.43s1.29,4.38,1.94,4.38,4.56,2.82,3.26,2.82H63.11s-.87,1.95.22,2.17,3.9,1.08,3.9,1.08,2.81,3.88,1.3,3.9-1.66,3.26-3,2.83-3.29-3.47-3.29-3.47L62,687.38l-3.69,2.56s-3.47-3-3.69-4.12S57,680.18,57,680.18s2-2.38,1.3-3.14l-.65-.76s-3.06,1.73-3,2.6,1.29,4.12,0,3.9-2.81.44-3.24-.65,0-8.24,0-8.24L49.47,660s3.23,7.16,3.23,8,1.08,8,1.08,8L57,671.94,56,665.87A61.62,61.62,0,0,1,52.48,660c-.21-.87.22-7.81.22-8.67s2.82-3.47,2.82-3.47v-8.24s-2.39,5-2.82,3.9-1.08-5-.43-5.64,3,.44,3,.44.44-3.07-.21-3.27-2.39-.64-2.61-1.29,1.3-2.6,1.52-3.47a31.37,31.37,0,0,0,0-4.55c0-.65-.43-12.36-.43-12.36l-.87-8.9,3.47.87L57,617.07l-1.3,7.59s4.62-1.08,3.94,0-1.12,5.86-.91,5.21,4.34-4.34,4.34-3.47.87,4.77.87,4.77-4.27,3.65-4.3,3.89-.18,3.48,0,2.83,3.86-1.3,3.86-1.3l6.34.43s-.48,4.78-2,5-5.2,3.69-5.2,3.69l1.95,1.52,5.25-2.39a1.72,1.72,0,0,0,0,1.52c.39.87-7.2,3.25-7.85,3.47a17.61,17.61,0,0,0-4.13,3.9c-.21.65.22,3.47.87,3.47a2.59,2.59,0,0,0,1.95-2.38A4.57,4.57,0,0,1,62,652.2s2.16,1.09,2.38,2.39.87,2.82,0,3.25S59.68,660,59.68,660v2.17l3.86-.65,3.26-3.25,2-3.91s.77-2.82,1.14-2.17,2.31,3.69,2.32,4.56-2.59,3.9-2.59,3.9Z"/><path class="cls-4" d="M2,611.43a10.75,10.75,0,0,1,3.69.87L3.8,616s4.44,1.08,5.09,1.3,3.47,3.25,2.82,3.47-1.52.43-1.73,2.6a5,5,0,0,1-1.52,3.25s-4.34-.65-4.77-2-.44-3.68.21-4.12A5.68,5.68,0,0,0,5.21,619H2.82l-2-5.85Z"/><path class="cls-4" d="M16.05,619h4.77l3,2.17,2.38,2.17-4.41,1.52L19.3,622s.65,5.53,0,5.53A5.56,5.56,0,0,1,16.05,626c-.65-.86,1.08-1.08.87-2.71S16.05,619,16.05,619Z"/><path class="cls-4" d="M5.21,639.84l1.09,3.47,7.58-3.47,2,6.08-4.09,1.3v-2.17s-2.48,2.82-3.13,2.17-4.56.09-4.56.09v-3.73Z"/><path class="cls-4" d="M2.6,664.13l3.7-.86L10,660l1.8,4.12,4.89-2.06L21.83,660l-2.09,2.06s-.65,1.85,0,2.06,5.42-1.3,5.63,0,.22,3.69.87,4.34,2.39,5.2,2.39,5.2-3.91,5.86-4.56,3.91a26.4,26.4,0,0,1-.86-5.21,9,9,0,0,0-3,.44c-.65.43-3,2.6-3,2.6s-2.68-2.17-1.23-3.47a69.47,69.47,0,0,1,5.93-4.12s-2.09-2.39-3.18-.87a12,12,0,0,1-3.9,3.21c-.65.26-2.41-.86-2.94-1.17a12.13,12.13,0,0,1-1.8-2l-3.71.44s3.68,3,2.81,3.68a13.33,13.33,0,0,1-2.81,1.3s-1.53-2.2-2.18-3.38A30.75,30.75,0,0,1,2.6,664.13Z"/><path class="cls-4" d="M6.3,697.1s3.1-3.69,3.71-3.47,6,3,5.61,3.47a20.4,20.4,0,0,0-2.39,4.33,48.2,48.2,0,0,0,0,5.64c0,.65,0,4.34-1.42,4.34H7.16s-.42-6.29-.86-7.16,0-4.77,0-4.77L6.1,698Z"/><path class="cls-4" d="M26.24,640.93c0-.65,4.12-1.52,4.77-1.09s4.12-2.6,4.34-3.68,1.95-2,1.95-1.1-2.09,5.65.8,4.78,4-3.41,4.19-2,.43,8.32,0,8.32-4-3.37-4.19-2.55.19,4.07-1.6,3.64-.9-3.59-2.11-3.64-3.38-.82-4.9,0-4.33-.92-4.33-.92Z"/><path class="cls-4" d="M28.63,563.94a21.09,21.09,0,0,0-1.52,3.69s-3.69.65-1.95,2.82,2.38,7.15,1.08,7.15-4.41-2.17-4.41-2.17l-3,2.17-1.95-2-2.82,5.21v-4.78l-3.23-6.28L8,574.57l-2.82-.22s-1.31,4.34-1.09,5.42S2.6,584.9,2.6,584.9s.87,3.55,0,4.63S5,592.78,5,592.78s.88,3,1.31,3.91S10,598.42,10,598.42l-1.12-4.77L6.1,588s-.23-4.34.2-5.42S10,581.18,10,581.18l3.22,3.72.87,2.68a18.25,18.25,0,0,0,2.82-2.68A11.29,11.29,0,0,1,18,582.81c.87-1.3,1.09-2.61,1.95-2.61s2.17,1.09,3,1,5-4.23,5.64-4.88-1.09-5.64,0-5.64,4.37-2.17,5.22-2.17-.2,3.26,0,4.78-3.05,2.6-1.54,5.2,3.16,2.39,4.19,4.12,1.09,4.55,1.6,5.86-1,2.82,1.8,3.25,4.13.43,4.13,1.52,3.08-3.66,2.19-4.32,1-10.21.16-11.3-3.66-2.82-4.74-2.6a12.23,12.23,0,0,1-5.14-1.08c-.5-.44-.16-4.56,0-5.21s.15-4.55-1.15-4.77a20.75,20.75,0,0,1-3.9-1.52l-.65,2.39Z"/><path class="cls-4" d="M541.52,570.88l3,5,3.47,1.52h8l1.3-1.52,1.74,2.82,4.77-1.3a23.81,23.81,0,0,1,3.25,1.3c.65.43,2.6-4.12,2.82-4.77s1.73,2.66,2.6,4.8,5.64,7.12,5.86,8.42-1.3,5.21,0,5.21,5.2-7.16,6.39-6.29-5.09,12.58-5.53,13.66-5.42-2.82-5.42-2.82l1.09,6.29-.87,5.64s3-1.08,2.6.22a67.11,67.11,0,0,1-3.47,6.29,28.05,28.05,0,0,0-.43,5c.21.86,2.82,2.16,2.82,2.16a17.79,17.79,0,0,0-2.39,2.82c-.22.65-1.95,2.82-2.17,3.69s.65,2,1.52,2.39,3-2.61,4.12-2.39,4.56-.65,4.56,1.08a11.33,11.33,0,0,0,.65,3.47s4.33-3.9,5.63-3,2,5.64,2,5.64-3,.65-.65,3.68,2,2.17,2.38,3.91,0,2.38,0,2.38a26,26,0,0,0-4.12-2.38c-1.3-.44-2.38-.87-4.12-1.3s-4.12.86-2.38-1.31,2.6-2.38,1.73-3.25-2.82-.43-3.9-.87-3.69-1.95-3.69-1.95l-5,4.12s-6.07-1.3-6.29-2.17-5.2,2.39-5.85,2.39-.65,4.12-.65,4.12l3.25,1.08s-1.3,3.24-.65,3.68,10.41,1.1,10.41,1.1l.87,4.33a13.16,13.16,0,0,0-3.47-1.08c-1.09,0-3.69,2.38-4.12,3s1.08,1.74,1.08,1.74l3.47-1.74,2.6.44s.65,2.38,0,2.38h-3.91l-.86,3-1.73,3.18s-1.52-3-2.17-2.39-.22-2-1.09-2.24a30.55,30.55,0,0,0-4-.19,8.94,8.94,0,0,0,1.38,2.43,27,27,0,0,1,3.25,2.39c1.52,1.44,3.47,3.4,3.47,3.4l-3.25,2.12-2.38-3.46h-2.23l0,1.54-1.77-42.31-1.44-6.47,4.95,1.06h4.56l-3.91-3.88s2.17-3.47,1.3-3.69-4.12,3.47-4.12,3.47l-2.15-.65-6.62-21.14-8.37-23.75Z"/><path class="cls-4" d="M591.18,560c-.22.65-1.52,5.63-1.73,6.29s1.51,5.42,1.73,6.5.17,6.29.19,7.37a35.73,35.73,0,0,1-1.94,6.94c-.42.87-2.15,3.69-2.15,3.69l-1.09,4.34a28.17,28.17,0,0,0,3.47-2.82c.44-.65,4.56,0,5.43.22s6.5,3.68,6.5,3.68,3.12,3.47,2.43,2.82,2.56-4.77,3.21-4.34,3.2,3.47,4,3.47,0-6.28,0-7.59-4.89-4.17-4.89-4.17-7.77-.5-8-1.46-.65-5.64-1.52-6.73-2.17-8.24-2.17-8.24-3.52-5-3.28-5.64A22.28,22.28,0,0,0,591.18,560Z"/><path class="cls-4" d="M598.88,620.52s3.15,4.1,2.49,4.34,2.65,1.32,2.65,1.32-1.13,5.77-1.34,6.25-3,2.43-3.8,3.08-1.41,2.6,0,2.82a3.28,3.28,0,0,1,2.15,1.51l-2.15,6.29s-1.22,5.86-1.86,4.34-1.28-5.2-2.15-6.51-.67-3.9-1.31-5.42,0-4.77,0-4.77l3.26-1.34v-4.3L597,626Z"/><path class="cls-4" d="M560,692.4c.65-.07,2.82-1.93,2.82-1.93s1.7-2.92,2.59-1.61.23,3.9,2,4.55,2.38,2.17,1.08,2.17-2.78,1.52-3.88,0,.41-2.17-1.11-1.52-1.52,2.65-2.17,2.19S560,692.4,560,692.4Z"/><path class="cls-4" d="M605.71,613.82c0-.65,2.82-2,2.82-2s2.69.43,2.69,2-2.91,2.67-2,4.7a66.34,66.34,0,0,1,2,6.34s-3.12,4.5-3.77,2.26-.22-5.32-.65-6.6-3-2.15-2.78-3.23A14.73,14.73,0,0,1,605.71,613.82Z"/><path class="cls-4" d="M561.18,719.36c.15.44.58,4,.58,4l5.2,1.16s44.26,1.44,44.26,1.88,1.56,2.89,1.56,3.32.79,10,0,9.69a20.38,20.38,0,0,1-3.45-2.89c-.44-.44-2.75-4.63-4.05-4.77A13,13,0,0,0,600,733c-1.05.58-1.34,3-.76,3.18s3.47,3.34,3,3.33-3-.58-3.47-.58-1.59,1.16-1.88,1.73,1.16,3.47.58,3.62-2.31.43-2.75-.58-2.16-3.32-2.6-3.32-1.3-1-.94-1.16,3.4-1.59,3.4-1.59,2.46-1.45,2-2.31-5.49-3.19-5.42-2.75,1.09,3.76.65,4.19-1.59,3-2,2.75a9.73,9.73,0,0,0-2.65-.29s1.54-2.31,0-3.18-4.29-2.6-4.87-1.45a9.55,9.55,0,0,0-.43,3.62l2.92,1.44s-.47,1.88-1.33,2a23.19,23.19,0,0,1-4.05-.44l-3.76-.58s-1.45.29-.87,1,1.59,1.15,1,1.73a8,8,0,0,1-2.74,1l-3.94-.87v-3.76a46.33,46.33,0,0,0-5.89.29c-.87.29-1.45,2.45-1.45,2.45l3.76,1.89,8.24,1.73a3.72,3.72,0,0,1-.14,2.46s3.47-.58,3.75-1,.15-2.16,1-2.45,1.88,1.3,1.88,1.3l.14,2.17,5.49-2.32h5.28l1.66-1,5.93.43,3-1.73s-1.3-2.46-.87-2.6a16.12,16.12,0,0,1,2.46-.15c1,.58,6.07-.14,6.07-.14L612,745.1l1.13,4.77s-2.36,7.52-2.65,7.08-6.21-2.46-6.21-2.46l-4.3,1.59s2.85,2.9,2.85,3.33-3.33,3.18-3.9,2.89.43-2.17-.44-2.89a29.52,29.52,0,0,0-4.19-2.31c-.87-.44.43,2.89.43,2.89s2.61,2.74,1.45,3.18-5.06.72-5,0,0-3.18,0-3.18l-3.4.29-6.65.14.44-3.61s-5.93,1.59-6.36,1.59H569.1v3.76s6.11-.87,6.39-1.3,4.2-1.88,4.2-1-1,2.89-1.88,3-6.07.73-6.07.73-5.06,1.44-5.21.86-.43-5.35-.43-5.35-.83-.43-1.57.87.27,3.47-.75,3.61-1.73.29-1.73.29,1,6.51.87,6.94,4.7,2.17,6.18,2,10.88-1,10.88-1l8.67,1,11.32,2s5.74,2.6,6.61,2.75,4.64,1.59,4.64.86V759.12l1.56.58V792H600.29c-.33,0-1.27-4.36-1.36-4.9s-2.21-1.68-2.21-1.68L560,784.28s-1.48-60.59-2.09-60.87,0-4,0-4Z"/></g></g><g id="black_shadow" data-name="black shadow"><g id="dark_feathers" data-name="dark feathers"><path class="cls-2" d="M427.45,478.78l6.36,10.7,5.2,10,.58,5.64-1.73,3.32s-.73-7.08-.73-7.52-6.36-12.57-6.36-13S427.45,478.78,427.45,478.78Z"/><path class="cls-5" d="M446.31,357.59l3.37,1.63L478.74,396l11.71,15.81,10,14.31s3.15,3.69,2.61,4.77-1.74-.65-1.74-.65-13.66-21.47-14-21.47S477.54,396.67,477,396l-17.89-21.93L447,359.43l-.65-1.19Z"/><path class="cls-5" d="M458.89,363.77s5.21,2.82,5.53,2.93,14.75,19.73,14.75,19.73l11.93,15.4,14.53,19.95,6.72,9.47s4.55,9,4.55,9.29.66,3.47.44,3.58-.54-.54-.76-.87-2.17-6.07-2.17-6.07l-3.69-5.1L487.3,400.31,470,378.73s-4.33-6.07-4.77-6.18-5.75-6.61-5.75-6.61Z"/><path class="cls-5" d="M470.93,368.11l8.89,8,14.86,21.47h-.87c-.33,0-9.76-11.6-10.09-11.71s-8.61-11.49-9-11.93-4.64-4.66-4.64-4.66Z"/><path class="cls-5" d="M498.69,404.87l13.55,18.54s15.51,22.66,15.51,23,6.83,11.49,6.83,11.49l.87,2.93-3.15-4.77-19.84-28.63L498,406.49Z"/><path class="cls-5" d="M498,397.6s7.7,10.52,8,10.63,16.37,25.37,16.81,25.7,6.5,9.46,6.5,10.2v1.94l-15.66-23.74s-9.49-14.43-9.82-14.64S498,400,498,400Z"/><path d="M22.34,102.45c1.08-1.31,6.5-3.26,11.93-3s15.83-.87,18.65-5,.65-6.07,2.6-11.93S65.93,72.3,73.09,71.43s15,2,15,2-7.81.65-10.84,2.16-7.59,2.61-5.86,5S75.9,87.92,76.56,89s2.6,6.29,4.77,6.51a13.64,13.64,0,0,1,3.68.86s-2.17,7.81-3.68,9.55-8,12.14-9.11,12.57-6.51-2.6-7.38-2.6-20.6-2.38-23-2.82-17.14-.87-18.22-3.25S22.34,102.45,22.34,102.45Z"/><path d="M105.83,127.82c.44-.65,4.72-6.81,5.86-10.84a51.64,51.64,0,0,0,1.52-8.9s20,11.5,22.33,12.58,27.55,24.07,32.53,33,30.58,56.82,33.18,61.8,15.84,24.29,17.57,27.76,6.29,12.8,7.59,14.32-13.66,8-14.31,7.8-12.58,5.42-12.8,4.77-23.85-66.14-29.49-76.55-11.93-26.89-17.35-33.18-27.33-28-30.58-28.84S105.83,127.82,105.83,127.82Z"/><path d="M202.34,334.06c-.11.33.22,13.77,1.41,16.05s7.37,19.19,8,22.12,8.46,19.41,9.65,21.25S232.27,412.57,233,415s2.6,7.92,3.14,10.09-1.41,2.92-3.58,2.06-7.48-7.27-8.56-8.14-.76,2.39,0,3.58,4.87,6.73,5.63,8.35,5.28,13.34,6.6,14.75,6.63,9.43,7.5,10.73,10.41,15.29,12,15.73,2.27-1.09,3.36,1.95,3.36,7.81,2.38,9.54-2.27,2.93-4.23,2.93-1.84,2.06-1,3.68,1.41,4.88.11,5.53-2.06.44-3.26-1.19-25.8-46.08-27.65-47.38-7.37-11.39-8.67-10.85-1.74,6.83-2.17,8.24,4.66,11.61,5.75,12.8,13.33,20.49,14.42,21.79,8.67,13.78,9.87,15.62,0,4-.65,3S217.74,459,216.76,457.57s-2.71-5.53-3.58-5-3.25,2.17-2.6,4.12S218,470,218.82,471.45s12.69,25.31,13.66,26.59,18.65,29.79,19.85,31.31S265,543,264.9,544.2s-2.16,2-3.57,1.41S231,503.22,228.69,498.66s-8.35-16.48-9.54-18.32-9.33-16.7-10.09-17.68-1.3.54-1.63,2.61-.43,3.79-.65,4.55-18.86-33-19.51-35.46-9.22-26.67-9.65-27.32,5.31,2.71,6.94,2.82,11.81,1.08,12.14,1.19,1.08,2.6,2,2.28,1.95-3.69,2.17-4.78.11-4.55-.76-5.31-11.17-.65-12.9-.65-10.2,1.08-10.63.33-14.64-31.56-15.07-32.86-11-29.6-10.19-34.59,11.6-9.76,11.92-10,12.26.22,13.77.65,16,6,17.35,5.75S202.34,334.06,202.34,334.06Z"/><path d="M318.36,316.06c2.17-.65,9.33-4.34,11.06-5.2s11.06-.22,11.93-.87,3.69.65,5,3,16.48,19.52,18.22,21.26,5,2.38,6.28,3.68,3.47,6.08,5,7.81a80.75,80.75,0,0,0,8.46,7.37c1.3.87,3,2.61,4.77,1.09s8-6.29,8.46-7.81,4.55-14.53,4.55-16.05.44-2.6,1.09-1.95,2.82,3.91,2.82,3.91l-1.09,2.6s15.18,18.21,15.4,18.87.65,3.25,0,2.6-14.53-16.27-14.53-16.27l-2.6-2.82-1.63,3.91s9.22,9.76,9.33,10.08,9.77,10.95,9.77,10.95-.56,1.2-.88.87-18.87-19.08-19.19-19.3-1.63,2.93-1.63,2.93,14.53,17.35,15.5,18,7.7,7.91,7.81,8.45-.11,2.82,0,2.39-12.79-13.45-12.79-13.45l-13.77-11.92-2.17,2.6.65,2.38L405.33,367l12.36,13.78,3.79,3.68-1.19,1.41L393.72,360l-.65,1.19,19.74,21s9.39,9.55,9.46,9.87,5.07,7.05,5.07,7.05V400l-29.5-27.65.55,3.36s1.3,1.19,1.3,1.73v2.17c0,.33,1.84,5.75,1.84,5.75l-1.08,2.6s3.36,6.72,3.47,7.16,6.29,11.82,6.29,11.82l-.44.87s-9.76-15.94-10.3-16.16a10,10,0,0,1-2.38-1.19c-.22-.33,3.36,6.5,3.36,6.5l1.3,3.91s-4.56-6.84-4.88-6.94-.76,1.41-.76,1.41,2.71,4.33,2.38,4.87-1.19,1.41-2.06.22-8.78-15-11.16-16.37-6.62-4.12-7.27-5.53-4.23-6.94-6.18-7.7a13.44,13.44,0,0,1-5.2-4.88c-.44-1.08,4.12,1.08,3.79.65s-6.4-7.76-7.16-7.78-5.31-5.23-6.72-5.88-1.84-1.74-3-2.82-8.56-7.16-9.75-8.68-4.67-3.14-5.1-3.79-15.4-13.45-16.27-13.77-1.62,1.83-2.92,1.57,0-1.57.86-2.44S318.36,316.06,318.36,316.06Z"/><path d="M364.7,489.48l12.14,1.16,3.47,1.44v11c0,1.59-1.88,17.5-1,19.23s.58,12.72,1,14.89.73,6.36,1.31,7.81,2.74,5.49,3.18,7.23.86,3.47.57,4.63-19.08-.44-19.95-.73-1.15-.72-1.44-3.61,3.9-7.95,3.9-9.25,0-31.23-1-33.11a21,21,0,0,1-2.91-7.38C362.82,498,364.7,489.48,364.7,489.48Z"/><path d="M314.53,498s6.22,1.3,7.09,1.59,6.36.58,7.66.73,1.73,3.75,1.3,5.49-1.16,6.65-1.74,7.52a30.22,30.22,0,0,0-1.88,6.79c0,.87-.57,11.57-.57,12.87s-1.3,11.28-1.45,12-2.6,2-3.32,2.31-3-.14-3.91,0-1.73,2.89-1.44,4.05-5.21,1-5.21,1v-8.82s5.64-11.13,4.77-14.45.44-11.43-.43-13a24.84,24.84,0,0,1-1.74-9.83Z"/></g></g><g id="dark_gray_shadow" data-name="dark gray shadow"><path class="cls-1" d="M216.22,377.65c.65.22,4.55,8.68,4.55,8.68h2.39l3.68,3,2.17-1.95,3,1.95,1.52-3.25,7.15,2.17,8,11.92h2.17v-3l11.92,1.52,1.09,3.68,4.34,5.43,6.5,2.16,7.38,1.09v2.82h3.68l-3,5.2-1.31,3h-5.42l-.86,1.95-2.82,1.52-4.34-4.77a8.27,8.27,0,0,0,0,2.38,27.41,27.41,0,0,1-.22,4.56H272l9.76,12.58,4.12,3v-2.82s-10.19-11.06-10.41-11.71,3.26-3.9,3.26-3.9l5-1.3,5-2.39c1.74-1.3,5,.22,5,.22s4.34,8.46,5,8.89,4.55,3.25,4.55,4.12,7.88,4.12,7.88,4.12L306,441l.78,1.51,4.28-.43,2.75,2.17H309.9l1.16,3h7.3s-1.52,3,0,3.25,4.12,2,4.34,2.6,2.17,4.34,2.17,4.34,4.59,1.08,5.87,1.52a49,49,0,0,1,5.41,3l-3.26,1.52,3.26.87,4.77,3.25.86,3.69,2,4.33,1.3,3.11s-3.26-2-3.91-2.24-3-2-3.68-2a31.48,31.48,0,0,0-4.12,1.3l2.38,2.89,11.71,2.53,16.17,9.55h-1.85s-9.76-.8-10.41-1.38-18,11.57-18,11.57L330.74,500l16.9-12.14-5.42-1.52-9.33-1.73-10.41-2.39-16.48-8-40.12-25.81-17.35-19.08L244,422.76l-18.65-22.47s-10.48-20.42-10.29-20S216.22,377.65,216.22,377.65Z"/><path class="cls-1" d="M294.29,407.8h6.94l5.55-5,9.63,15.83,5.86,6.07-3.91,3.47H309s-7.38-5.2-7.81-6.07-6.94-10.19-6.94-10.19Z"/><path class="cls-1" d="M274.12,380.47l2.6-3.9,3,1.08,1.52-1.08,1.52,1.95v4.34l1.51,1.51v6.73h1.52V382l4.56.21v3.69l3.9,3.47,5,.22,3.25,5.2s-2.17.49-2.38,1.22a19.88,19.88,0,0,1-1.74,2.9l-4.12-1.73v5l-3.9.65v-5.42L291,395l-2.71-1.52-6.18.44-3.91-4.23Z"/><path class="cls-1" d="M314.46,388.71l-3.4,2v8.46s-3.11-1.73-2.78-1.08,2.78,5.85,2.78,5.85l.3,1.09,5.92,8.67,1.08-2.6v-5l-3.47-.22,2.17-1.73L316,397.39,312.51,396l.8-3.6Z"/><polygon class="cls-1" points="262.84 358.81 266.75 362.25 271.52 360.53 274.12 363.55 275.21 366.59 274.12 370.71 270 370.71 267.62 365.94 262.84 362.25 262.84 358.81"/><polygon class="cls-1" points="262.84 352.28 270 352.28 269.02 354.88 262.84 354.88 262.84 352.28"/><path class="cls-1" d="M322.27,438.37l5.42-5.2,1.73-5v-5l10.85-4.33v1.51l-3.91,2.17,5,1.95v4.12l6.07,2.39,5.86,2.82-1.09,2.82,3.47,1.73,2.61,1h2.38l2.94,2.28v-2.28l4.22,4,5,1.74h3.63L370,432l-11.93,1.62-8.68-18.11h1.52l10.2,14.81,10.84-2.12,7.37,19s3,3.14,3.36,3.25,8.46-1.84,8.46-1.84.33,1.3,0,1.19a53.36,53.36,0,0,0-5.42,1.73s2.71,1,2.82,1.52,1.52,5.32,1.19,5.32h-1.84s-.22,1.95-.76,1.95-1.3-1.74-1.3-1.74l-.87,4-1.08,6.73s-.44-2.39-1-2.06-1,2.06-1,2.06l-2.6,12.9-1.84,3.15-2.39,3.25s-4.15,1.62-4.15.9-1.45-11.56-1.45-11.56l-1.73-11.57-4.15-8.24,4,.43-.14-1.44,1.15-1.59-1.44-1.31s-2.79,1.88-3.57,1.6-3.23-.15-3.66.43-5.06,2.31-5.5,2.75-3.47,3.61-3.47,3.61l-1,1.74s-1.73-.73-2.17-1a22.1,22.1,0,0,1-2-2.6s-2.6.58-2.89.15a26.86,26.86,0,0,1-.87-3.76l1.16-12.58s-1,.72-1.88-.87a24.26,24.26,0,0,1-1.59-4.3s-.87-2.78-1.59-3.07-4.2-2-3.76-.67,2.75,3.74,2.75,3.74l2.31,4.73,1.59,2.17-.43,5.64s-4.92-.72-5.5-.87a29.39,29.39,0,0,1-3.47-2.16l-2.75.57v1.88l-3.61.58,2.89-5.2-3-3.18-1,2-.72-.43Z"/><polygon class="cls-1" points="269.42 405.34 269.42 402.81 272.31 404.07 275.21 400.13 277.81 406.06 282.44 407.22 281.57 409.1 275.93 409.1 274.12 407.8 270 407.8 269.42 405.34"/><polygon class="cls-3" points="269.42 398.83 270.87 396 272.75 397.42 271.59 398.83 269.42 398.83"/><path class="cls-1" d="M380.31,491.22l3-4.49s2.75-5.49,3.18-5.63a16.6,16.6,0,0,1,2.75,0v-3.76l2-1.74,1.62-1.3,1.88-3.61,2.46-2.17s3.18-1.3,4,0,.29,3.18.72,3.32a24.16,24.16,0,0,0,2.75.29l9.68,9.11,2.17-.87-2-2.31-2.6-3.61-3.76-10.85s5.64,9.26,6.36,10.56,2.31,3.18,2.75,3.25a16.35,16.35,0,0,0,1.88,0l-1,2.67.29,2.61s11.14,13.44,11.57,13.88.58,4.48.58,4.48v1.15l1.88-1.15s.58-1.45,1-1,0,1.59,0,1.59,3.67,0,3.72.57-.68,5.35-.68,5.35-4.49,3.62-4.92,3.62a23.42,23.42,0,0,1-6.22.58c-3.9-.15-9.11-2.89-12.43-3.33s-4.21-1.59-4.21-1.59,4.79-.87,4.35-1-4.35-2.17-4.35-2.17a5.24,5.24,0,0,0-1-1.59c-.43-.29-1.59-2.75-2.74-3.18a5.27,5.27,0,0,0-3.76.72c-.58.44.14,2.75.14,2.75l5.35,6.07-25.3-15.61Z"/><path class="cls-1" d="M322.27,417.48l3.83-.87a26.87,26.87,0,0,1,2.89-1.12c.43,0,2.6-4.22,2.6-4.22l4.34.72s3.47-3.62,3.9-3.47a61.71,61.71,0,0,1,6.22,6.21,8.2,8.2,0,0,0-1.59.76l-4.92-4.66a35.35,35.35,0,0,0-3.18,2.82c-.14.36-6.36,5.71-6.5,6.15a43.5,43.5,0,0,1-2.75,3.47h-2.6l-.15-2.17Z"/><path class="cls-1" d="M231.66,496.59l4.51,3h6.65l6.51,6.94,4.91,9.11,5.35,10.55s6.51,8.68,6.94,9.4,1.88,6.07,1.88,6.07a16.47,16.47,0,0,1-3.5,1c-.91,0-9.28-9.65-9.28-9.65l-16-23.66Z"/><path class="cls-1" d="M215,264.3h3.56l5.64,8.17s4.34,4.34,4.56,5,4.55,4.34,4.55,4.34l1.08-1.74v7.81l8,11.49H247s2.39,3.69,2.39,4.34,9.11,8.67,9.11,8.67l-1.95,1.74-5-4.29-5.42-4.39-1.31-1.73s-3,1.95-3,2.6,6.29,3.52,6.29,3.52l6.72,4.29-8.89,5.64-3.69-1.52-5.47-8.41-1.68-2.43-.44-11.06s-1.52-4.49-2.17-4.31a12.11,12.11,0,0,1-2.6,0s-9.11-18-9.54-18.68-2-3.2-2-3.2Z"/><path class="cls-1" d="M306.78,287.22s12.88,5,11.58,4.8-7.37,1.49-7.37,1.49l-8.46,1.3-4.34,4.77s-5.85,1.08-5.85,0,2.6-6,5.64-7.56S306.78,287.22,306.78,287.22Z"/><path class="cls-1" d="M329.21,244.06c.21.65,15,10.63,15.18,11.28s1.67,6.07,1.67,6.07L393.4,292l55.08,49.2L463,353.58s-89.78-82.52-92.82-83.44-26.24-17.62-27.1-18.06S329.21,244.06,329.21,244.06Z"/><path class="cls-1" d="M443.49,351.19s8,1.52,8.9,2.39,4.12.87,4.12.87v-1.63s6.72,3.79,8,4.77,3.25,6.18,3.25,6.18l3.91,1.52-1.63,1.52L463,364.64s-6.94-3.25-7.59-3.69l-5-3.36L446.31,356Z"/><path class="cls-1" d="M462.15,372.66c1.3.87,17.5,18.14,17.5,18.14s9.6,12.16,9.49,12-3.14-.87-3.79-1.63-9.71-10.08-9.71-10.08l-8.52-9.8-5.62-7.12Z"/><path class="cls-1" d="M350.31,618.52l54.87,1.88,4.63.65,39.1.75,11.72.48s2.89,88.91,2.38,88.48-3.32-.51-3.32-.72.5-20.17.29-20.24-1-.44-1-.44v-6l1.16-1.3L459.9,679l-1.44-.94.65-.58.07-2.45-.79-.37.07-9.39.79-.58s-.36-4.19-.36-4.41-.58-13.59-.58-13.59,1.23-4.19,1.23-4.41-.43-13.74-.43-13.74l-.65,1.38-.94-.22a23.32,23.32,0,0,0-.87-3.4c-.22-.14-51.9-.43-51.9-.43l-7.59-.43-.15-2.32-4.7-.43h-3.75l-.22,1.23-.94.86-8.82.44.29-1.95-1.59-2h-9.47l-6.51.44-.5-.65-2.75.43-.87,1.08-6.5-.94Z"/><path class="cls-1" d="M391.81,627.7h4.26v-.58h20v1.08h12.36v.58h12v.58h-.87l-.07.8s-4.84,0-4.84.29-.15,1.8-.15,1.8l5.93.44,1,1.88h4a16.7,16.7,0,0,1,.87,1.51l1.66-.14s2.31-1.3,2.17-1.88-1.59-.29-1.59-.29l.58-1.16,2.67-.14s.72-1.08.94-.87,1,.29,1,.58v2.39s-.65-.08-.58.65.94,5.71.58,5.78a19.1,19.1,0,0,1-2,0l-1.23.36-1.37-1.52a9.39,9.39,0,0,0-.73-2c-.21-.14-2.82-.14-3.25-.22a4.82,4.82,0,0,1-1.3-.72l1.66-.5-.58-1.23-3.68-.08s-.08.87-.29.8a8.92,8.92,0,0,1-1.09-.72s-.72-1.38-.72-1,.07,2.42.07,2.64-1.52.43-1.52.43a7.23,7.23,0,0,0,.08-1.8c-.15-.22-1.3-.87-1.45-.37s-.29,1.81-.29,1.81l-1.08.72s-.51-2-.51-2.24-.36-2.6-.36-2.6-5.57-.29-5.71.07a7.85,7.85,0,0,0-.15,1.67,33.63,33.63,0,0,0,3.33.72,21.4,21.4,0,0,1,2.46.29L434,637l-3.19.07-.43.65s-1.52-.21-1.52.22.22,4.05.22,4.27.58.94.79.86,3.62-.42,3.55,0-.08,1.22-.29,1.22-5.21-1-5.21-1l-.14-5.2-.94-.44-.36-.5-2.39.21s-.43.73-.65.65a3.36,3.36,0,0,0-1,.15l.4,4.12s3.94.43,3.79.65a3.16,3.16,0,0,0-.22.87L416.1,644s-.29,4.34-.07,4.2a43.14,43.14,0,0,1,4.62.36l.8-.87a9.52,9.52,0,0,1,.72.87c0,.07,5.2.36,5.2.36l.8-.29.87.29,1,.29,2-.58.44-1.45-.87-1,.65-.72s1.16.14,1.08.51a20.65,20.65,0,0,0,.29,2.6l1.45.14,4.26.51s-.5.87-.21.79a9.39,9.39,0,0,1,1.44,0s-.21-.8,0-.8.65-.15.65.14.8,1.38,0,1.38-3.83.21-3.76.65a2.38,2.38,0,0,1-.07.94s.51,1.52.87,1.59a1.11,1.11,0,0,1,.8,1.08c-.08.51-.29.72-1,1.3a3.31,3.31,0,0,0-1.15,1.45c-.08.29,0,3.69,0,3.69l-1.59.36s-.37-2.82-.73-2.82-1.44.65-1.37.87a16.55,16.55,0,0,1,.87,1.59,40.23,40.23,0,0,1-.36,5.13,5.22,5.22,0,0,1-1.81,0c-.07-.15.22-4.12-.07-4.19s-1.45,1.15-1.45,1.15a11.69,11.69,0,0,0-1.81-.72,6.42,6.42,0,0,0-1.15.29l.21,5.78s-1.23.87-1.44.58a54.08,54.08,0,0,1-.51-5.57l1.3-.5-.07-1.67s4.34-.21,4.34-.43.07-3.61.07-3.61l-.94-1.3s-.22-1,.07-1l3.47-.07,1.45-1.16a7.63,7.63,0,0,0,0-1.8A8.76,8.76,0,0,1,435,651l-7.3-.51a9.22,9.22,0,0,0-1.88.72,8.86,8.86,0,0,1-3-.21,7,7,0,0,0-2.28-.58c-.29.14-.51,3-.51,3a20.69,20.69,0,0,1,.65,2.75c-.07.22-.57,1.16-.57,1.16l-1.31-.51H408s-12.07-.65-12.14-.94a4.66,4.66,0,0,1,.29-1.37l5.13.14s5.41-.29,5.41-.36,11.5.43,11.5.43v-1.59a19.4,19.4,0,0,0-.21-2.6c-.15-.29-1.3.73-1.74.65s-1.15-1.3-1.37-1.3-2.31.15-2.82.22-3.9-.22-4.12.07-.29,2.17-.51,2.31-.37.58-.73.37-.42-2.39-.64-2.39-1.09.22-1.09.65a3.8,3.8,0,0,1-.43,1.23l-1.73.07v-1.81a6.61,6.61,0,0,1-1.74-.43c-.22-.22-1.08-.65-1-.87a33.08,33.08,0,0,1,4.19-1l.36-3.39s1.52,0,1.52.37.07,3.68.07,3.68l2.17-.66h6.07s0-4.4-.32-4.62a22.63,22.63,0,0,0-3.43-.36s-5.14.29-5.35.29-2-.36-2-.36l-.07-.79,5.42.5,2.1-1,3.36-.22.76.8,5.49-.22-.07-4.12-3.47-.29s-.79-.79-1.08-.79-11,.29-11.28.21-.72-.58-.72-.58-.08-.86.14-.93,4.55-.51,4.55-.51l13.31.22s-.94-2.82-.94-3.11-.29-1.52-.65-1.52-4.85-.22-4.85-.22l-.21,2.32-1-.51-.83-1.45s-1.16-.86-1.38-.79-.65.94-1.15,1-1.74-.87-1.74-.87a5.28,5.28,0,0,0-1.8.08,10.81,10.81,0,0,1-2.61,0c-.36,0-3.25-.8-3.25-.8l-.94-.94s.15,2,.15,2.24.57,4,.57,4l1.52.72V637l-2.53-.29-1.44-.5.79-1.74a7.07,7.07,0,0,0,.07-2,6.85,6.85,0,0,0-.79-1.88,17.28,17.28,0,0,0-2.39-1.59h-4.55Z"/><path class="cls-1" d="M367,627.84a14.28,14.28,0,0,1,.36-1.44h6.08v.72s11.78-.36,11.85,0a2.14,2.14,0,0,1,0,.72l-2.6.36.14.58s.87-.5.8,0-.15.94-.15.94-1,.22-1.15.58-1.16,1-1.16,1l-1.08.51-.87-1.88-.22-1.81h-8.38l.07.58-1.52-.51L368,628Z"/><path class="cls-1" d="M386.1,628.78c.21-.14,1.44.94,1.44.94s.87.65.94.44.58-1.39.58-1.39.8-.45.8,0v2.54s1.37.15,1.37.51-.29,2-.36,3-.22,4.77-.22,5.06a14.7,14.7,0,0,0,1.16,2.17l.79.94h-2.67l-1.3.36a3,3,0,0,1-1.52-.36l-2.24.39s-1.38-.19-1.45,0,.22,3.59,0,3.88a6.49,6.49,0,0,0,0,2s1.39-.22,1.31.43.51,2,.29,2.46-.65,1.16-.43,1.52.79,1.37.75,1.16.62-1.16.62-1.16,1,1.37.65,1.74a4.09,4.09,0,0,1-1.27.65h-3.64a3.68,3.68,0,0,0,.5,1,7.76,7.76,0,0,1,.58,2.31l1.09,2,1.47-.87s1.85,2.67,1.82.5a57.17,57.17,0,0,1,.54-6.36h1.44a4.2,4.2,0,0,1,0,1.38c-.14.21-.86.86-.86,1.08s-.29.87.14.87.94-.36.87-.07a9.78,9.78,0,0,0,.14,1.66s-.79.14-.72.5a10.88,10.88,0,0,0,.36,1.16s1.59-.07,1.59.29.15.65-.07.87a49.24,49.24,0,0,1-5.25.5v-.65l-1.91.15-1.08-.58-1-1.88s-.94,0-.94.36-.22,1.59-.22,1.59l-8,.22s-1.31-.15-1.38.07-.29,1.59-.29,1.59a6.63,6.63,0,0,1,.29,1.88c-.14.22-.58.29-.58.51a11.36,11.36,0,0,1,.29,2.24l-.72,1.07s-.29-3.17-.43-3.53a52,52,0,0,1,.36-5.21s.79-1.22,1-1.15,1.16.94,1.52.94,6.36.72,6.36.72a3.62,3.62,0,0,0,.36-1.3c-.07-.36-1.23-1.66-1.37-1.45s.07,1.09-.44,1.31a3.41,3.41,0,0,1-2.09-.15,10,10,0,0,0-2-.43l-1.73-.8.36-4.19,1.59-.58.22,4.19,2.38-.5s.22-3.33-.14-3.33a20.81,20.81,0,0,1-1.95-.87c-.37-.07-2.1.15-2.32-.07a15.17,15.17,0,0,1-.94-1.73s3.26-.65,3.47-.65.51,0,.51.36-1,1.59-1,1.59h2.24s-.15-2.17-.22-2.46-.87-.15-.22-1.16a2.2,2.2,0,0,1,2-1.15c.36.07,1.59-.22,2.16-.15s.29,2.17.29,2.17-2.17-.79-2.17.36-.36,2.61.08,3,1.44.07,1.8.43,2.17,1.37,2.25,1.16a9.19,9.19,0,0,1,.86-1.16l-.43-3.25-.07-2.11s-.44-1.29-.51-1.51-.52-3.32-.52-3.32l-2.88-.51-2.24.8s-1.59-.73-1.8-.8-.66,1.74-.87,2.17-1,.87-1.09.65,0-2-.14-2.67-.36-2.24-.36-2.24l3.9-.22s6,1.52,6,1.3,3.25-.43,3.86-.51,3.59-.29,3.59-.29l.07-2.24-.51-2.74s-1.3-.44-1.3-.8.72-1.3.72-1.3l-1.95-.14Z"/><path class="cls-1" d="M374,668.18c.29,0,18.94.65,18.94.43s16.34-.19,16.34-.19.22-4.94,0-5.08-10.7-.73-10.92-.8.15-1.08.15-1.08h17.78l.94,1.37a63.34,63.34,0,0,0-6.36.29c-.14.22,0,5.54,0,5.54s3-.19,2.89-.77-.79-4.12.07-4.19,1.45-.22,1.38.14-.07,4.12.21,4.27S418,669,418,669s6.79-.8,6.79-.44.51,1.51,0,1.62-6.43,0-6.5.33,0,4.85,0,4.85,13.08-.15,13,0-.44,1.88-.65,1.88-13.81-.65-13.95-1.09-.22-6.79-.22-6.79-2.24-.25-2.35.13a13,13,0,0,1-1.63,1.89s-.43,4.19.36,3.91,3-.58,3-.22.43,2.09-.07,1.88-4.56.21-4.78-.29a6.64,6.64,0,0,1-.14-1.88s1.23-.8,1.08-1.3a26.57,26.57,0,0,0-.36-3.3c-.29-.61-8.92,0-8.92,0l-9.08-.32s-10.19-.67-10.33-.37l-1.45,2.9-.14,2,3.18.5,2.09-.22a32.8,32.8,0,0,0,4,.51c.72-.07,2.46-.29,2.46-.29l.72-3.4L395,674l13.81,1.15-.87,1.09-16.12-.65s-9.33.65-9.69.57a13.22,13.22,0,0,1-2-2,24.75,24.75,0,0,1-3.54-1.3,9.75,9.75,0,0,1-1-2.72S374,669,374,668.9Z"/><path class="cls-1" d="M369.62,682.06c.28-.07,8.81,0,8.81,0l.51,1.52.22-1.55,2.6.32s.51,1.23.87,1.23,2.24-.22,2-.36.22-1.15.44-1.19a14.75,14.75,0,0,1,1.87.39s1.74.55,2,.38,1.66.38,1.59,0-.43-3.78-.43-3.78a18.93,18.93,0,0,1,1.66-1.8c.07.07.36,4.84.36,4.84l1.95.36,12.94-.36v.87l-2.17.65s.44,5.71.36,6.14-3.25,1.67-3.47,1.23a8.9,8.9,0,0,1-.07-2.31s2.32.5,2.24.22-.29-3.47-.29-3.69.51-2,.51-2L392.6,683a21.67,21.67,0,0,1,.51,3.4,11.27,11.27,0,0,1-2.1,1.23,15.08,15.08,0,0,1-1.66-1.88c0-.22.87-1.07.36-1.62s-1.81-.61-1.81,0,.08,2.34.08,2.63a3.09,3.09,0,0,0,.36,1.52c.29.36-.72,2-.58,2.76a2.86,2.86,0,0,1-.07,1.36s-1.16.07-1.45-.58-.5-3.4-.87-3.76-2.09-3-2.45-3.25a26.06,26.06,0,0,0-3.26-.29,3.29,3.29,0,0,0-1.8.29c-.29.29-3.91-.65-3.91-.65L372.22,683a10.72,10.72,0,0,1-1.81.29C370.19,683.22,369.62,682.06,369.62,682.06Z"/><path class="cls-3" d="M390.72,688.86a17.62,17.62,0,0,0,3.33,0h4.55v1.37s-1,.5-1,.79.44.58.44.58l4.59-.29-.55,1.09H393l-.36-1.77s-.65-.26-.79.25a4.84,4.84,0,0,0,0,1.52l-1.09-.73Z"/><path class="cls-1" d="M400.05,698s.79.72.72,1,.8.65.8.65-.15,1-.44.94-.65-.29-.72-.07-.14,1.08-.36.94A18.27,18.27,0,0,1,400.05,698Z"/><path class="cls-1" d="M415.52,682.06c.22-.07,2.89,0,2.82.29a6.37,6.37,0,0,1-1.09,1.23v3.32l.22,2,.87.57-.58,1.2a8,8,0,0,0-.83-1c-.33-.29-.4-6-.4-6L415,682.57Z"/><path class="cls-3" d="M423.54,682a11.46,11.46,0,0,1,1.95,0s-.86,1.55-1,1.48.4,1.66,0,2-1.19,2.1-1.27.43a19.93,19.93,0,0,0-.39-3.1s-.47-.15-.47-.37S423.54,682,423.54,682Z"/><path class="cls-3" d="M427.09,698.54s1.3.15,1.22.36-.94.88-.94.88l-1.37-.3Z"/><path class="cls-1" d="M441.62,662.25v6.65s-.22,2.24,0,2.24h1.66s.43-.57.79-.65,2,.29,2.17,0,.29-.82,0-1-2.67-.3-2.82,0-1.08.13-1,0a43.69,43.69,0,0,0,.15-4.4"/></g><g id="white_highlights" data-name="white highlights"><g id="goose_highlight" data-name="goose highlight"><path class="cls-6" d="M44.75,101.29c.43-.15,16.19-7.09,17.78-11.57s2.31,12,8.1,14.89S44.75,101.29,44.75,101.29Z"/><path class="cls-6" d="M88.41,74.25,98.24,76s10.12,7.23,10.27,7.66l3.32,10-.58,22.12s-3.47,9.25-3.9,9-13.45-4-13.88-4.19-16.77-6.65-16.77-6.65l5.49-10.12,3.91-8.82L86,92.33l-2-3.37,1-4.3,3.62-.29Z"/><path class="cls-6" d="M76.7,76.57c.3-.79,4.77-.58,5.2,0s2.9,3.32,2.9,3.32-1,2.89-1.31,3.33-4,1.15-4,1.15a14.17,14.17,0,0,0-2.75-1.88c-.87-.29-2-2.89-2-2.89A14.88,14.88,0,0,0,76.7,76.57Z"/><path class="cls-6" d="M186.29,181l3.47,3.25,15.61,26.68,24.29,37.52s5.64,9.11,6.29,8.89,7.38,0,7.38,0l24.29,22.77s18.21,14.31,18.21,13.45,20.95-6.08,20.95-6.08L293,296.54l-1.3,5.64s-21.47,2.39-26.24,6.51-14.75-2.39-14.75-2.39l-4.16-4.12v-4.12l-2.78.65-2.82-3.25-5.2-3.91-2.39-6.07.87-5.42a21.88,21.88,0,0,0-3.26-.87c-.65,0-3.9-4.33-3.9-4.33l-1.95-2.39-7.59-9.11L231,257.29l-20.81-33.18L188,186.81Z"/><path class="cls-6" d="M140.53,306.56l17.3-.8,25.15.8L197.47,308s1.21,4.23,0,3.83-33.2-2-33.2-2L146,311.05,141.34,308Z"/><path class="cls-6" d="M327.47,237.34l11.93,1.95,13.66,10.41,96.51,85.66s37.95,39,37.3,38.82a6.82,6.82,0,0,0-2.17,0l-33.18-32.53s-72.22-65.49-82-72.22-34.26-23.93-34.26-23.93l-7.81-5.78Z"/><path class="cls-6" d="M329.21,421.89l10.33-11.06,4.92,4.66,1.59-.76,3.32.76,8.68,18.11L370,432l6.5,13.12-7.38-1.29a34.68,34.68,0,0,1-4.33-4.46c-.87-1.41-2.38,0-2.38,0l-10.2-2.71,1.09-2.82L342.87,428l-1.52-3.47-3.14-1.22,2.06-2.9v-4.48Z"/><polygon class="cls-6" points="534.36 450.95 558.43 485.87 567.54 499.53 571.88 506.04 539.13 461.36 533.5 452.04 534.36 450.95"/><path class="cls-6" d="M356.75,406.28l-5.42,4.55v2.82l10,18L372.58,428v6l5.2,7.59,1.09,4.19,5.42,5.57,6.51-3s-2.61,1.73-2.61,3a68.2,68.2,0,0,0,1.3,6.94h-2.81L384.07,470,383,468.3l-2.17,9.33c-1.08,1.08-.43,4.33-.43,4.33h-2.17l.21,4.34-3.25,2.39,5,2.17,6.51-10.41s3,.21,2.81-.65-.21-2-.43-2.61,4.56-3.9,4.56-3.9l2.6-4.34L393,468.3s-.86-3.9-.65-4.55,2.82-1.95,2.82-1.95l2.61,4.55V469l3-.43,4.12,5,9.33,6.5s.65-2.82,0-3-2.17-5.21-2.17-5.21l-3.47-7.37s6.94,12.36,7.59,12.58,3.69,1.08,3.69,1.08l-2,2.82,2,4.34,11.27,10.84v-6.72l-5.85-13L423.54,472s-1.73-2.39-2.17-3-1.95-7.37-1.95-7.37l3.47,2.6-6.72-13.88.43-4.48-11.06-27-11.06-20,4.77,11.28s1.09,10.84.65,14.75-2.38,13-2.38,13-4.34,5.86-5,5.86,0-5.64,0-5.64l2.39-11.93-2.17-3.9s-2.6-13.67-3-12.15.22,5.21-1.3,5.64-2.38-1.3-2.38-1.3-.87-5.42-1.74-7.16-2-1.08-2-1.08-1.95,5-2.39,5.64-2.17,1.3-3,.65a58.13,58.13,0,0,1-4.34-5.43l-2.17-3.25-2.6,4.34-1.52,1.95-4.12,1.09Z"/><polygon class="cls-6" points="228.66 311.82 230.27 311.82 235.5 323.87 233.69 323.87 228.66 311.82"/></g><g id="background"><path class="cls-6" d="M2.32,783.63c.28.21,26.88,4.55,28.33,4.55S32.53,792,32.53,792H.78v-7.51Z"/><path class="cls-6" d="M231.66,548.33s-2.65,11.49-2.21,12.14-1.52,35.57-1.52,36.22,4,2.38,3.73,1.73,1.69-35.13,1.69-35.13v35.28h1.3V652.2l3.91,1.52h17.78l-2.6-3.9,7.8,3s8,.65,8.68.86,8.67-2.38,8.67-2.38l2.17,2.4V649l5,2.6,7.81-1.08,3.68,2.39,5.21-.22,3.25-2.82.78,2.6,4.28-1.73,14,.21,4.12,2.84a10.33,10.33,0,0,0,1.53,1.28c.2,0,6.92,1.52,6.92,1.52l13.67-1.73-1.52-37.09,110.82,4.56L463,710.76s-110.17-.43-110.82,0-1.73-53.35-1.73-53.35h-5l-6.72,1.3-5.64-1.52s-6.07-.21-7.59,0a16.25,16.25,0,0,0-3.47,1.09l.65,1.52h-5l-.22,1.73s-3.68-.65-3.9-1.3-1.59-.87-2.53-1.09-6.36-.65-6.36-.65,0-2.82-.87-3-3.9-.87-3.9-.87-1.95,1.52-2.6,1.52-6.73-.44-6.73-.44l-13,.66a32.35,32.35,0,0,0-4.77-1.09c-1.08,0-5.86.43-5.86.43l-4.12-.86L261.33,657l-4.56.43-1.95-2.17H242.24l-3.68.87-3.91,5.2L233.57,792H600.29c-.65,0-2.17-6-2.17-6l-11.49-1.08s-26.46.65-26.89,0-5-132.07-5-132.07l-1.3-41.43s-14.32-42.29-15-42.5-3.68-1.52-3.68-1.52l-96.73-6.29s4.12,4.34,4.77,4.77,4.34,6.51,4.56,7.16,2.6,8.24,2.6,8.24.22,2.82-1.73,3-2.39.43-1.31,3.25,3.26,10,1.31,10.62a9,9,0,0,1-8-2c-2.38-2.17-26.13-27.54-26.13-27.54s-5.53-8.46-8.78-8.24-30.8-3.2-30.8-3.2L275,550.71Z"/><path class="cls-6" d="M42.07,720.52c-.86-1.95,4.7-146.17,4.7-146.17s5.21-4.92,6.07-4.63,7.81,2.89,7.81,2.89,11.57-9.54,11-9.25,9.54,0,9.54,0l5.5-4.63s11.56.87,11.27,0a21,21,0,0,1,0-4.33l76.91-9.83h20.24l2.6,3.76,5.78-3.76,1.45,3.76v3.75L86.54,567.41s-2.2,20.42-4.36,19.9-7.36-9.2-7.36-8.33-1.45,13-1.45,13,2.9,4.34,1.45,5.49-9.54,8.39-10.41,8.39-2.31-9.54-2.31-9.54l-.87-9.55s-2.31-4.91-3.18-4.33-4,13.88-4,13.88-1.44,3.75-2,3.47-3.76,102.65-4.34,101.78,6.07-.29,6.07-.29v-7.81c1.45,1.16,2,7.81,2,7.81l4.62-.87v-10.7l2.32,1.45.57,9h5.5l-.29-20.53,2.89.58.86,31.53L64.7,712l.58,10.41H63.54L61.81,712l-3.47.87.29,9.54s6.65,2.31,7.52,2.89-28.05,0-28.05,0v-1.45l17.35-1.73-.58-9-6.65-.57L47.93,721Z"/><polygon class="cls-6" points="403.59 509.29 405.98 508.42 407.37 558.75 403.59 558.03 403.59 509.29"/><path class="cls-6" d="M598.34,575.87a44.78,44.78,0,0,0,1.95,5.2H604l1.73-5.2h5.51v13.44l-3.77-2.82-4.56-.21-4.55-1.3-1.52-6.73Z"/><path class="cls-6" d="M579.25,684.33c.65-.68,11.93,0,11.93,0L590.31,696s-5,1.09-5.09.87-4-.87-4.66-1.3-2.17-5.11-2.17-5.11Z"/></g></g><g id="small_details" data-name="small details"><path class="cls-1" d="M125.86,108.37l4.48,1,17.93,14.89,16.91,17.49,8.51,14.16,8,13.17s-2,.43-2.17,0-6.21-11.86-6.21-11.86l-5.93-7.52s-16-20.38-22.55-25.15-14.46-9-16.05-10.12-2.89-4.63-2.89-4.63Z"/><polygon points="302.1 348.08 306 345.92 307.59 345.92 310.34 344.04 308.02 347.51 304.27 348.95 302.1 348.08"/><path d="M332.89,370.06s5.21-3.47,5.21-3.9-.73-3.18-.73-3.18h2.46l2-2.9.86,4.34s1.59,2,.87,2a6,6,0,0,0-3,1.59c-.15.43-2.61,1.59-3.33,2S332.89,370.06,332.89,370.06Z"/><polygon points="369.62 376.86 371.78 376.86 372.8 380.18 372.8 382.64 367.3 383.8 367.3 381.92 370.05 380.9 369.62 376.86"/><path d="M340.27,402a15.4,15.4,0,0,1,2.6,2h4.05l3.18-1-1.3,2-3.62,1.3s-2.31.87-2.75,0a7.79,7.79,0,0,0-2.16-2Z"/><path d="M285.47,407.8H291s5.93-.53,6.51-1.07,6.94-3.85,6.94-3.85a9.86,9.86,0,0,1-1.45,2.46c-.72.72-4.19,1.39-4.19,1.39L293,408.37h-3l-2.6,1.74h-1.88Z"/><path class="cls-3" d="M371.64,515.36l2,2.6s1,5.64,1,6.22,4.62-.14,4.48,0a61,61,0,0,1-2.32-8.1c0-.72,1.89-10.84,2.32-10.26s1,31,1,31L378,529.67l-3.32-1.59-.44,4.2s-1.88.58-2,0S370.63,517,370.63,517Z"/><path class="cls-3" d="M372.36,539.94l3,5.35,1.3,3.32,3.47-1.73v-6.94l4.05,10.12s1.73,6.64,1.3,6.94-10.12,0-10.12,0,.29-7.37,0-7.52a20,20,0,0,0-3,.15v-9.69Z"/><path d="M108.65,660.66c.65,0,8.24,3.26,7.59,3.69s-3.47,1.95-4.77,1.73-4.77-2.7-4.77-2.7Z"/><path d="M191.28,655.46h13.44s.65,3.47,0,3.47h-8.89s.87,1.3.22,1.73-3.69,1.3-4.12,0A32.07,32.07,0,0,1,191.28,655.46Z"/><path class="cls-1" d="M233.78,567.84v84.8s1.74,20.17,1.52,20.82-1.52,119.46-1.52,119.46-7.15,2.72-7.59.9,0-188.68,0-188.68l4.47-9.1Z"/><polygon points="350.1 271.31 355.59 277.68 356.77 282.01 361.66 279.99 363.59 283.46 359.93 283.46 354.44 281.72 351.33 278.54 351.33 275.07 350.1 271.31"/><polygon points="358.77 292.02 363.59 298.82 358.77 297.05 358.77 292.02"/><path class="cls-1" d="M330.74,504.08l5.62-3,9.7-7.45,7-3.68,10.52.94,0,7.15.35,4.77,1.93,5.64s1.49,6.07,1.52,6.72,0,20.39,0,20.39l.47,7.74L365.42,548,364,552.52l1.44,3.61-39.9-3.75v-1.67l.11-10.77,1.84-3.11V521.31l1.74-8.94Z"/></g></g></svg>